<?xml version="1.0" encoding="utf-8"?>
<!-- Generator: Adobe Illustrator 24.1.2, SVG Export Plug-In . SVG Version: 6.00 Build 0)  -->
<svg version="1.1" id="logo" xmlns="http://www.w3.org/2000/svg" xmlns:xlink="http://www.w3.org/1999/xlink" x="0px" y="0px"
	 viewBox="0 0 1115.6 1115" style="enable-background:new 0 0 1115.6 1115;" xml:space="preserve">
<style type="text/css">
	.st0{fill:url(#SVGID_1_);}
	.st1{fill:url(#XMLID_3_);}
	.st2{fill:#FFFFFF;stroke:#000000;stroke-miterlimit:10;}
</style>
<linearGradient id="SVGID_1_" gradientUnits="userSpaceOnUse" x1="445.078" y1="1216.017" x2="699.7681" y2="1363.0623" gradientTransform="matrix(0.9061 0.423 0.423 -0.9061 -481.1946 1571.0713)">
	<stop  offset="0" style="stop-color:#4E4E4E"/>
	<stop  offset="0" style="stop-color:#474D5E"/>
	<stop  offset="0" style="stop-color:#374982"/>
	<stop  offset="0" style="stop-color:#2946A2"/>
	<stop  offset="0" style="stop-color:#1D44BE"/>
	<stop  offset="0" style="stop-color:#1341D4"/>
	<stop  offset="0" style="stop-color:#0C40E5"/>
	<stop  offset="0" style="stop-color:#073FF0"/>
	<stop  offset="0" style="stop-color:#043EF7"/>
	<stop  offset="0" style="stop-color:#033EF9"/>
	<stop  offset="0.1154" style="stop-color:#064BF9"/>
	<stop  offset="0.3271" style="stop-color:#0D6CFA"/>
	<stop  offset="0.6114" style="stop-color:#18A2FC"/>
	<stop  offset="0.9542" style="stop-color:#28ECFF"/>
	<stop  offset="1" style="stop-color:#2AF6FF"/>
</linearGradient>
<path class="st0" d="M646.8,508.2c72.9,34.1,103.5,122.8,68.3,198.3s-122.9,109-195.8,74.9s-103.5-122.8-68.3-198.3
	S573.8,474.1,646.8,508.2z"/>
<linearGradient id="XMLID_3_" gradientUnits="userSpaceOnUse" x1="53.3627" y1="1288.3761" x2="988.7104" y2="1288.3761" gradientTransform="matrix(0.9061 0.423 0.423 -0.9061 -481.1946 1571.0713)">
	<stop  offset="0" style="stop-color:#4E4E4E"/>
	<stop  offset="0" style="stop-color:#0338F9"/>
	<stop  offset="1" style="stop-color:#00D0FF"/>
</linearGradient>
<path id="XMLID_1_" class="st1" d="M281.9,67c65.9,67.9,97.8,148,107.5,209.7c18.4,75.4,14.1,172.1-31.1,263
	c-64.4,134.8,2,282,116.9,335.6c155.6,72.7,291-25.5,337.2-124.3c52.8-113.1,9.7-267.9-124.7-330.7
	c-85.8-40.1-168.5-14.5-168.5-14.5l-45.6-166c0,0,136-47.6,287.7,23.2c85.9,40.1,147.7,102.4,186.6,174.3
	c65,119.9,66.9,266.8,12.5,383.1c-86.9,186.2-321.7,317.7-553.3,209.5c-202.9-88.7-231-292.5-231-292.5s-27.1-157.3,25.8-270.8
	c26.2-56.1,34.7-143.5-5.7-220.2L281.9,67z"/>
<path class="st2" d="M-19.9-81.1"/>
</svg>
